<?xml version="1.0" encoding="UTF-8"?>
<svg id="Layer_1" xmlns="http://www.w3.org/2000/svg" version="1.1" viewBox="0 0 825 825">
  <!-- Generator: Adobe Illustrator 29.8.4, SVG Export Plug-In . SVG Version: 2.1.1 Build 6)  -->
  <defs>
    <style>
      .st0 {
        fill: #1a1a1a;
      }

      .st1 {
        fill: #22c55e;
      }

      .st2 {
        fill: #e8f5e9;
      }
    </style>
  </defs>
  <path class="st2" d="M312,175c-1.35.29-2.63.7-4,1l15.77-58.71c-1.06-8.26-39.35-15.3-45.68-5.68l26.91,63.4-49.99-36c-4.23,17.33-3.61,33.86,1,51.01,15.73-3.3,31.33-7.41,46.99-11l1,2-31.78,38.65c-.34,5.18,24.32,25.4,31.27,25.38l3.51-64.03c.07-.02,0-.97,1-1l20.55,67.03c16.41-2.34,29.24-18.48,31.31-34.34l-48.86-32.7-.52-1.97c1.27,1.23,3,.8,4.52.97,15.99,1.85,31.96,5.27,47.99,6.99l-3.62-18.07c-14.52-.47-27.52,5.17-41.38,8.07,29.07-20.99,82.79-16.64,110-50.5l122.98-37.02v-2.95s-35.31-19.3-35.31-19.3l-79.67,41.77,71.53-44.04-19.02-60.95-73.99,105.01c-20.4,6.1-41.03,14.49-57.04,28.96-5.5,4.97-9.68,12.97-13.54,16.46-8.45,7.67-23.4,13.29-31.94,21.56ZM343.63,117.37c-42.73-43.37-111.58-16.71-117.5,42.26-5.67,56.57,40.71,120.31,102.12,101.12,42.98-13.43,51.95-54.76,42.74-94.76l-5.94,1.07c24.17,94.25-78.13,119.38-110.82,32.2-29.38-78.37,38.96-137.18,94.37-65.17l5.22-4.36c-.2-1.02-8.71-10.84-10.2-12.36ZM462,277l43.98-4.48-68.01-106.99c-11.59-13.32-25.89-19.16-41.44-7.5-17.49,13.12-8.26,28-10.66,47.34-2.51,20.28-14.14,42.25-29.87,55.13-4.07,3.33-13.26,6.35-15.47,8.53-.89.88-8.68,17.47-8.54,18.48-.35,2.6,5.05,1.52,6.54,1.52,9.61.02,31.81-2.32,41.46-4.04,1.83-.32,7.41-.97,8.13-1.59l24.89-54.4,31.2,48.77,17.78-.77ZM534,296c-.52-.46-10.76-6.45-12-7-25.38-11.35-59.92.52-86.93,1.06l3.93,44.94,9.32-1.08,8.69,75.08h-9.01s4,45,4,45c38.7-1.03,77.86-2.38,116.38,2.12,13.06,1.53,26.12,9.92,41.62,1.88,0,.82-.45,2.77.65,3.03,18.13,4.27,37.76,6.16,56.36,10.46,42.18,9.75,83.01,23.41,123.47,38.53-.1-5.96-.31-12.02-.48-18.02-.93-31.93-3.85-64.22-7-96l-2-2c-.79-1.02-2.21-.68-3-1-2.3-.92-4.63-1.36-7-2-.57-.15-1.42.15-2,0-8.22-2.1-16.54-4.06-25-5-2.94-25.09-6.8-51.87-8-77h10c-.02-4.06-.84-7.93-1-12-.39-9.82-1.25-19.51-4-29-.35-1.22.4-5.62,0-6.01l-3.5-.02c-56.32,7.09-113.86,8.46-169.87,13.16-12.94,1.09-27.15,9.57-33.63,20.87ZM402,298c-.31-1.04.36-4.68,0-5.01-29.32,1.43-58.53,6.51-87.78,8.81-2.03.16-.73-3.3-6.71-2.86-31.36,2.33-83.45,4.23-89.52,45.05-3.03,1.98-1.51.61-2.12-1.36-3.03-9.71-4.69-19.87-9.88-27.64-.47-.71,1-5-2.49-5.02l-33.37,4.17-16.15,135.85c-1.02-2.89-6.03-12.49-5.94-14.51.06-1.36,5.71-10.67,6.64-14.28,7.68-29.81,5.35-75.74-25.71-91.21-3.55-1.77-4.43-2.88-9-4-.11-.03-.52-.74-2-1-1.22-.21-2.72.15-4,0h-2c-2.62-.18-5.36,0-8,0h-4c-2.32.08-4.69-.13-7,0l-2,1-47.05,5.57,4.04,46.44h11.01s12.77,148.78,12.77,148.78l-7.85,5.7,5.09,50.51c28.73-16.96,56.89-34.73,86.81-49.68,68.13-34.05,145.03-58.26,219.99-71.01,14.38-2.45,29.03-3.87,43.55-5.45l1.7-2.38c-.76-3.51-.94-6.88-1.04-10.47-.24-8.21-.59-20.33-3-28-.24-.77.31-3.77,0-4l-13.01,1c-11.25-13.48-18.03-31.07-28.26-45.33l.26-3.67c9.97-11.88,10.6-29.19,29.93-28.06.45-4.06-.76-7.92-.93-11.94-.36-8.58-.52-17.73-3-26ZM446.01,341.99l-53.88,5.13,1.01,17.23,5.86,1.64,1,14h-5.01s2.02,20.01,2.02,20.01l29.99-3v-4.01c5.62,7.04,11.51,2.26,19,3.01,1.38-1.34-3.74-28.14-3.11-32.52.7-4.83,3.61-2.63,4.17-4.12,1.08-2.85-2.53-13.27-1.06-17.38ZM433.81,462.32c-88.86,4.69-84.94,138.09,4.68,137.77,93.33-.34,91.27-142.83-4.68-137.77ZM613,518c7.02-2.9,14.75-5.29,21.9-7.92,18.13,39.2,34.88,79.23,54.1,117.92,1.82,3.66,2.79,9.12,5.99,12l4.01-20c.07-.11.64-.27,1-1,1.08-2.19.64-4.86,1-7,7.3-43.14-49.15-97.87-66.52-135.98-15.85-7.03-32.7-3.67-48.48-5.02-3.57-.31-23.07-6.34-22.99-3.52l35.43,56.62c4.44,2.75,11.3-4.75,14.56-6.1ZM329.99,490c-42.59,29.16-50.64,82.7-46.52,130.97-16.93,17.96-48.26,37.81-50.44,64.55-2.69,33.03,17.19,71.79,52.96,75.48-34.95,12.31-8.22,43.66,18.53,44.95,32.92,1.59,33.81-24.01,26.5-48.89,48.99-20.75,18.75-75.12-20.91-81.2l-7.03-32.44c51.82-37.6,46.82-99.19,26.9-153.43ZM267,500c-12.83.88-26.84,9-39.07,12.69-13.47,42.4-53.08,96.07-60.93,138.31-8.22,44.2,5.53,66.27,53.05,57.54.47-8.83-2-17.61-1.05-26.54,2.28-21.5,20.69-38.33,34.99-52.52l-2.46-1.46c-7.85.96-15.64,2.44-23.53,2.98l59.98-133.52-1.46-1.47-19.52,3.99ZM628.86,526.14l-109.86,48.88,53.53,122.98c-20.06,8.6-37.83,46.28-9.59,56.56,21.79,4.38,41.67-20.36,39.06-41.06l-52.55-116.49,1.16-4.91,72.3-32.02,43.12,95.4c-16.77,5.66-31.4,31-22.87,47.86,20.01,25.37,51.38-4.74,51.86-28.8l-66.16-148.41ZM645,637c-6.05-16.25-14.76-31.75-22-47.5-19.37,1.44-39.91.94-57.89,8.6-1.99,3.01,17.03,39.99,19.88,45.89,3.67,7.6,6.45,16.18,10.18,23.81,1.89,1.02,40.31-3.08,42.79-4.34,1.61-.83,8.03-10.56,11.1-11.92l.78-3.78c-1.56-3.57-3.49-7.13-4.84-10.77ZM539,648c-2.55-5.84-20.87-47.29-23.51-48.04l-170.79,18.98-25.22,28.12,2,15.97c5.75,1.73,10.73,4.43,15.52,7.98,8.89,6.59,16.69,14.13,23.58,22.81l189.42-20.82c-3.27-8.49-7.35-16.66-11-24.99Z"/>
  <path class="st2" d="M318,176c-1.03.74-1.47,1.34-3,1v-1c.89-.19,2.1.19,3,0Z"/>
  <polygon class="st2" points="305 175 306 175.5 305.5 176 305 175.5 305 175"/>
  <path class="st1" d="M402,298c2.48,8.27,2.64,17.42,3,26-2.33.83-8.35,1.57-9.97,2.53s-20.3,30.42-20.99,32.22c-.31.8-1.16,6.23,1.95,5.26l-.26,3.67c10.23,14.26,17.01,31.86,28.26,45.33,3.28,3.93,3.25,9.23,13,3,2.41,7.67,2.76,19.79,3,28-25.72,3.63-49.58,7.21-75.24,12.26-9,1.77-19.64,4.67-28.24,7.81l-7.91-4.06c-12.43,14.69-30.14,19.38-48.62,13.99l-.02,5.99-83.24,32.05-92.13,50.08c.32-10.04-6.51-24.66.43-32.58,4.1-4.68,5.39,2.73,5-12.07-1.02-38.49-7.06-93.17-12.13-131.87-.92-7.04-2.71-14.3-2.97-21.52l-10-.72-2.92-26.6,2.75-2.68,64.23-4.07c31.05,15.47,33.39,61.4,25.71,91.21-.93,3.61-6.58,12.92-6.64,14.28-.09,2.02,4.91,11.63,5.94,14.51,3.51,9.91,7.35,20.1,12.98,28.99l19.21-159.3,19.81-4.69c5.18,7.77,6.84,17.93,9.88,27.64.61,1.97-.91,3.34,2.12,1.36-1.21,8.12,5.07,25.55,8.99,33,.77-24.53,15.9-67.53,45.44-69.08,3.97-.21,13.8,2.61,14.97,2.17s.24-3.23,2.22-3.96c.89-.33,17.38-2.16,18.94-2.19,4.2-.07,3.37,2.2,4.88,2.14,29.55-1.24,59.1-4.93,88.55-8.07ZM394,309l-33,3.01,1.06,7.93,7.01.5c7.28,5.49-20.86,41.58-22.08,49.55l-4.03-43.54,6.92-5.58.14-6.88-40.6,3.96.66,6.98c8.66-.22,8.92.11,10.68,7.83,6.83,29.98,2.78,72.22,8.01,103.49l-1.98,5.52-7.32,3.23.56,7.01,40.85-9.15-.29-5.93-8.76-3.31-3.79-43.61c4.54,5.52,25.89,37.93,22.85,42.86l-4.93,1.77,1.13,7.34,41.95-5.96v-8.01c-7.12,1.48-11.57-6.09-15.41-11.09-11.64-15.15-20.92-37.21-31.58-53.48-.12-2.86,23.99-46.64,31.86-46.55l.13-7.88ZM303.99,315.01l-5.78,1.21-2.83,8.73c-73.34-39.59-74.27,133.12-25.64,140.8,23.8,3.75,44.74-20.74,41.08-43.08l-3.23-1.58c-3.05.87-9.87,30.67-26.08,29.96l-7.56-3.51c-14.38-11.8-25.25-104.5,1.31-115.79,15.04-4.36,24.71,21.83,25.78,33.18l6.94.05-4-49.99ZM200.94,326.07l-4.97.59c-8.53,47.18-9.05,97.76-17.13,144.67-2.19,12.69-6.64,21.89-7.82,33.67l27.02-12.69-.03-7.31-8.75-.2-.25-33.29,22.5-7.52c1.29,10.12,14.46,29.63-.32,34.19l-.17,8.82,38.02-14.69-.03-7.3c-7.91,1.7-9.86-10.68-12.02-16.48-14.45-38.87-23.35-82.75-36.04-122.45ZM355.99,331.01l-3.51.97-.48,4.01,3.51-.97.48-4.01ZM144.02,518l23.39-11.09,1.12-8.98c-.84-1.34-3.52.83-5.08-.8-2.38-2.48-26.16-58.51-26.26-61.87-.1-3.58,5.17-8.57,6.56-12.99,6.1-19.4,6.39-44.1-1.28-63.23-13.39-33.38-42.5-15.44-69.48-16.02l1,10,7.02.48c4.32,2.22,6.25,30,6.97,36.03,2.17,18.25,14.29,133.86,10.22,142.18-1.52,3.1-4.09,3.61-6.09,5.99l.89,9.3,37.85-21.63-.33-8.39-7.52.59-9-71.56,30.01,71.99ZM271,363c-2.86,21.16-2.21,45.59,5,66,1.28,3.62,1.73,7.57,4.21,10.78,9.85,4.9,16.78-24.85,19.93-29.66l16.86,1.87-3.46-37.05-19.58,1.66-12.17-34.38-5.38.71c-5.5,5.55-4.48,13.12-5.42,20.07ZM204.84,456.16l-4.97.42-1.86,16.41,10.03-4.69-3.19-12.14Z"/>
  <path class="st1" d="M741,268c2.75,9.49,3.61,19.18,4,29l-9.53.96c-2.38,4.13.37,7.71.53,11.04,1.2,25.13,5.06,51.91,8,77,2.16,18.43,3.67,36.96,6.22,55.28l5.77,2.73,2-52.01,25.01,4.01c3.15,31.78,6.07,64.07,7,96l-86.73-27.95-77.3-16.75.02-9.29c-10.58,8.54-19.24,11.81-33.23,9.73-18.08-2.69-31.89-6.88-52.23-7.77-23.72-1.04-47.86.37-71.57.62l-2.99-25.88,10.03-2.71-10-92h-11.01s-1.88-25.88-1.88-25.88l68.88-5.11c1.24.55,11.48,6.54,12,7,.56.51,6.88,12.59,8.48,11.99,9.11-20.32,26.03-32.05,48.78-27.76,3.08.58,15.29,9.16,16.73,7.76l-2.11-6.47,2.88-3.45,58.64-4.88,4.65,28.22-9.92,2.73c-1.28,3.6.7,7.88.86,10.85,1.03,19.54,4.5,40.48,7,60,2.1,16.37,3.47,32.92,5.99,49.28l4.54,1.77,4.47-46.06,13.47,2.1,3.63-3.58-9.73-75.39-10.42-2.76-1.95-28.37,61.01-3.99ZM732.93,278.08l-42.84,4.55.93,7.35,9.56,3.94,16.47,153.7-8.04-.61,1.06,9.93,68.93,21.06-5.39-73.1-5.6-.9c-.27,8.58,1.82,51.2-10.48,51.89-7.39.42-14.94-4.48-17.07-11.83-5.08-17.47-17.38-128.2-16.46-146.6.16-3.22,1.06-6.3,2.2-9.27l7.72-1.27-.97-8.83ZM659.99,283.99l-42.99,4.01,1,7.98,9.75,3.75,15.72,131.26-8.48,1.01,2.68,8.81,68.31,14.18-5.67-63.08-5.32-.92c-.07,8.11.1,39.06-6.92,43.59l-19.06-2.12c-1.36-1.01-1.4-2.63-1.98-4.02-2.94-7.04-16.56-116.07-16.06-126,.1-2.02.64-6.63,2.01-7.95l8-1.51-1.01-9ZM574.75,290.25c-51.15,8.68-30.03,158.39,31.5,147.5,41.61-7.36,28.29-157.65-31.5-147.5ZM478,430h42v-8.01s-7.77-.73-7.77-.73c-5.86-2.87-7.39-40.48-8.22-48.26l30.98,56.51,26.53,2.44.5-7.24c-16.8-12.32-21.78-38.53-33.87-55.4,11.99-11.5,13.42-24.63,10.57-40.52-7.86-43.85-42.95-26.89-74.72-26.79l.44,7.07c8.66,1.64,8.71.5,11.12,8.88,4.46,15.53,9.94,72.93,10.42,90.57.12,4.3.49,8.71-.85,12.89l-8.08,1.64.96,6.95Z"/>
  <path class="st0" d="M329.99,490c19.92,54.24,24.93,115.84-26.9,153.43l7.03,32.44c39.66,6.08,69.9,60.45,20.91,81.2,7.31,24.88,6.41,50.48-26.5,48.89-26.76-1.29-53.48-32.65-18.53-44.95-35.77-3.69-55.66-42.46-52.96-75.48,2.18-26.75,33.51-46.59,50.44-64.55-4.12-48.27,3.93-101.81,46.52-130.97ZM325.99,519c-23.39,21.65-32.29,57.98-28.97,89,25.66-22.1,41.06-55.22,28.97-89ZM290.99,655c-15.47,9.06-35.19,34.87-35.75,53.82-.83,27.92,32.91,46.68,57.76,40.18l-10.02-39c-11.28,5.91-10.01,23.02-1.07,30.64l-7.46,3.41c-23.05-17.57-24.13-48.11,1.42-63.72l-4.88-25.34ZM326.01,742c18.12-5.4,3.28-27.73-8.01-31.99l8.01,31.99ZM306.01,794.99c17.81,2.86,15.44-22.44,10.43-32.85l-21.43.87c12.33,6.96,19.83,18.54,11,31.98Z"/>
  <path class="st0" d="M628.86,526.14l66.16,148.41c-.48,24.06-31.85,54.17-51.86,28.8-8.54-16.86,6.09-42.2,22.87-47.86l-43.12-95.4-72.3,32.02-1.16,4.91,52.55,116.49c2.61,20.7-17.26,45.43-39.06,41.06-28.24-10.27-10.47-47.96,9.59-56.56l-53.53-122.98,109.86-48.88Z"/>
  <path class="st0" d="M433.81,462.32c95.95-5.06,98.01,137.43,4.68,137.77-89.62.33-93.54-133.08-4.68-137.77ZM426.77,480.3c-45.66.93-44.08,70.7,1.71,69.78,44.4-.89,44.36-70.71-1.71-69.78Z"/>
  <path class="st1" d="M539,648l-202,23c-4.79-3.55-9.77-6.25-15.52-7.98l-2-15.97,25.22-28.12,170.79-18.98c2.65.75,20.96,42.2,23.51,48.04Z"/>
  <path class="st0" d="M318,176c13.85-2.9,26.85-8.54,41.38-8.07l3.62,18.07c-16.03-1.73-32-5.14-47.99-6.99v-2c1.53.34,1.97-.26,3-1Z"/>
  <path class="st0" d="M312,175c8.54-8.27,23.49-13.89,31.94-21.56,3.85-3.5,8.04-11.5,13.54-16.46,16.01-14.47,36.65-22.85,57.04-28.96L488.51,3.01l19.02,60.95-71.53,44.04-11.98,6.51,11.98-6.51,79.67-41.77,35.3,19.3v2.95s-122.97,37.02-122.97,37.02c-27.21,33.86-80.93,29.51-110,50.5-.9.19-2.11-.19-3,0-2.17.46-2.85-1.03-3-1Z"/>
  <path class="st1" d="M380,285c-9.65,1.72-31.85,4.05-41.46,4.04-1.49,0-6.89,1.08-6.54-1.52-.14-1.01,7.65-17.59,8.54-18.48,2.2-2.18,11.4-5.2,15.47-8.53,15.73-12.88,27.36-34.85,29.87-55.13,2.39-19.35-6.83-34.23,10.66-47.34,15.55-11.66,29.85-5.82,41.44,7.5l68.01,106.99-43.98,4.48-42.14-68.83-3.99-.6-35.87,77.42Z"/>
  <path class="st1" d="M267,500c2.02-.14,10.76-1.03,10.95,1.44-6.63,13.16-12.12,26.84-18.33,40.21-.39.85-3.02,2.03-3.29,2.63-1.49,3.23-3.29,10.95-5.22,15.14-.45.97-2.67.05-3.17,1.15-.54,1.18.75,5.06,0,6.68-3.69,8.02-30.41,59.18-28.78,63.18,2.4,3.68,6.7.72,8.85.57,7.89-.54,15.69-2.02,23.53-2.98l2.46,1.46c-14.3,14.19-32.71,31.02-34.99,52.52-25.22,7.14-51.66-1.5-52-31,7.85-42.24,47.46-95.91,60.93-138.31,12.22-3.69,26.24-11.81,39.07-12.69Z"/>
  <path class="st0" d="M100,325c.99-.03,2.86,0,4,0,2.64,0,5.38-.18,8,0,.97.07,1.9-.01,2,0,1.28.15,2.78-.21,4,0-.28,2.4.22,2.66,2,1,4.57,1.12,5.45,2.23,9,4l-64.23,4.07-2.75,2.68,2.92,26.6,10,.72c.26,7.22,2.05,14.48,2.97,21.52,5.06,38.7,11.1,93.39,12.13,131.87.39,14.8-.9,7.39-5,12.07-6.94,7.92-.12,22.54-.43,32.58l92.13-50.08,83.24-32.05.02-5.99c18.48,5.39,36.19.7,48.62-13.99l7.91,4.06c8.6-3.13,19.25-6.04,28.24-7.81,25.65-5.06,49.52-8.64,75.24-12.26.1,3.59.28,6.96,1.04,10.47l-1.7,2.38c-14.51,1.58-29.16,3-43.55,5.45-74.96,12.76-151.85,36.96-219.99,71.01-29.91,14.95-58.08,32.72-86.81,49.68l-5.09-50.51,7.85-5.7-12.77-148.79h-11.01s-4.04-46.42-4.04-46.42l47.05-5.57c.12,0,.63,1.13,1.38,1.08.96-.06.52-2.07.62-2.08,2.31-.13,4.68.08,7,0Z"/>
  <path class="st0" d="M522,289l-68.88,5.11,1.88,25.89h11.01s10,91.99,10,91.99l-10.03,2.71,2.99,25.88c23.71-.25,47.85-1.66,71.57-.62,20.34.89,34.15,5.08,52.23,7.77,13.99,2.08,22.65-1.19,33.23-9.73l-.02,9.29,77.3,16.75,86.73,27.95c.17,6,.39,12.06.48,18.02-40.47-15.12-81.29-28.78-123.47-38.53-18.6-4.3-38.23-6.18-56.36-10.46-1.1-.26-.65-2.21-.65-3.03-15.51,8.05-28.56-.35-41.62-1.88-38.52-4.5-77.67-3.15-116.38-2.12l-4-45.01h9.01s-8.69-75.07-8.69-75.07l-9.32,1.08-3.93-44.94c27.01-.54,61.55-12.41,86.93-1.06Z"/>
  <path class="st0" d="M343.63,117.37c1.49,1.51,10,11.34,10.2,12.36l-5.22,4.36c-55.41-72.01-123.76-13.2-94.37,65.17,32.69,87.18,134.99,62.06,110.82-32.2l5.94-1.07c9.21,40,.24,81.33-42.74,94.76-61.42,19.18-107.8-44.56-102.12-101.12,5.92-58.97,74.77-85.63,117.5-42.26Z"/>
  <path class="st0" d="M539,648c3.65,8.33,7.73,16.5,11,24.99l-189.42,20.82c-6.9-8.67-14.69-16.21-23.58-22.81l202-23Z"/>
  <path class="st1" d="M701,612l-1,7c-.36.73-.93.89-1,1-.12.21-2.69-.35-2.96.04-.52.76-1.8,8.94-7.04,7.96-19.22-38.68-35.96-78.72-54.1-117.92-7.15,2.63-14.89,5.02-21.9,7.92l-27-47c15.78,1.35,32.62-2,48.48,5.02,17.37,38.11,73.82,92.84,66.52,135.98Z"/>
  <path class="st0" d="M534,296c6.48-11.29,20.69-19.78,33.63-20.87,56.01-4.71,113.55-6.07,169.87-13.16l3.5.02c.39.38-.36,4.79,0,6.01l-61.01,3.99,1.95,28.37,10.42,2.76,9.73,75.39-3.63,3.58-13.47-2.1-4.47,46.06-4.54-1.77c-2.52-16.36-3.89-32.91-5.99-49.28l13,1c-2.66-20.61-3.58-41.78-7.63-62.05l-12.37,1.06c-.16-2.97-2.14-7.26-.86-10.85l9.92-2.73-4.65-28.22-58.64,4.88-2.88,3.45,2.11,6.47c-1.44,1.4-13.65-7.17-16.73-7.76-22.75-4.3-39.67,7.44-48.78,27.76-1.6.6-7.92-11.49-8.48-11.99Z"/>
  <path class="st1" d="M645,637l-60,7c-2.85-5.9-21.87-42.88-19.88-45.89,17.97-7.66,38.51-7.16,57.89-8.6,7.23,15.75,15.94,31.25,22,47.5Z"/>
  <path class="st0" d="M206,315l-19.81,4.69-19.21,159.3c-5.63-8.89-9.47-19.08-12.98-28.99l16.15-135.85,33.37-4.17c3.49.02,2.01,4.31,2.49,5.02Z"/>
  <path class="st0" d="M218,344c6.07-40.82,58.16-42.71,89.52-45.05,5.98-.44,4.68,3.02,6.71,2.86,29.25-2.31,58.46-7.38,87.78-8.81.35.32-.32,3.96,0,5.01-29.46,3.14-59,6.83-88.55,8.07-1.51.06-.69-2.21-4.88-2.14-1.56.03-18.05,1.86-18.94,2.19-1.98.74-1.03,3.51-2.22,3.96s-11-2.37-14.97-2.17c-29.54,1.55-44.66,44.54-45.44,69.08-3.92-7.45-10.2-24.88-8.99-33Z"/>
  <path class="st0" d="M311,180l48.86,32.7c-2.08,15.86-14.9,32-31.31,34.34l-20.55-67.03h3Z"/>
  <path class="st0" d="M308,176c-2.75.61-2.81,2.5-5,3-15.66,3.59-31.26,7.7-46.99,11-4.61-17.15-5.22-33.68-1-51.01l49.99,36v.5l.5.5.5-.5-1-.5-26.91-63.4c6.33-9.62,44.62-2.58,45.68,5.68l-15.77,58.71Z"/>
  <path class="st1" d="M446.01,341.99c-1.47,4.11,2.14,14.53,1.06,17.38-.56,1.48-3.47-.72-4.17,4.12-.63,4.37,4.49,31.17,3.11,32.52-7.49-.74-13.38,4.04-18.99-3.01v4.01s-30,3-30,3l-2.02-20.01h5.01s-1-14-1-14l-5.86-1.64-1.01-17.23,53.88-5.13ZM438.99,349l-14.86,2.12-.14,4.88h4.99s1,11,1,11l-14.72-15-16.27,1.01.48,4.02c7.29,1.73,5.43,4.77,6.5,11.5.76,4.76,3.5,18.9-2.82,18.62l-.15,4.86,16.01-1v-6.01s-5.58-1.91-5.58-1.91l-1.42-15.09,25.98,22c2.21-2.41-4.03-29.7-2.88-33.44.51-1.65,6.16-.77,3.88-7.55Z"/>
  <path class="st0" d="M380,285l35.87-77.42,3.99.6,42.14,68.83-17.78.77-31.2-48.77-24.89,54.4c-.72.63-6.3,1.27-8.13,1.59Z"/>
  <path class="st0" d="M167,651c.34,29.5,26.78,38.14,52,31-.95,8.93,1.53,17.71,1.05,26.54-47.53,8.74-61.27-13.34-53.05-57.54Z"/>
  <path class="st0" d="M645,637c1.35,3.64,3.28,7.2,4.84,10.77l-.78,3.78c-3.06,1.37-9.48,11.1-11.1,11.92-2.48,1.27-40.89,5.37-42.79,4.34-3.74-7.63-6.51-16.21-10.18-23.81l60-7Z"/>
  <path class="st0" d="M307,181l-3.51,64.03c-6.95.03-31.61-20.19-31.27-25.38l31.78-38.65c.92-.15,2.21.22,3,0Z"/>
  <path class="st0" d="M267,500l19.52-3.99,1.46,1.47-59.98,133.52c-2.14.15-6.45,3.1-8.85-.57-1.63-4.01,25.09-55.16,28.78-63.18.74-1.62-.55-5.5,0-6.68.51-1.1,2.72-.18,3.17-1.15,1.93-4.19,3.73-11.91,5.22-15.14.28-.6,2.9-1.79,3.29-2.63,6.21-13.37,11.7-27.05,18.33-40.21-.19-2.47-8.93-1.58-10.95-1.44Z"/>
  <path class="st0" d="M586,471l27,47c-3.26,1.35-10.12,8.85-14.56,6.1l-35.43-56.62c-.08-2.82,19.42,3.21,22.99,3.52Z"/>
  <path class="st0" d="M769,391h2c2.37.64,4.7,1.08,7,2l3,1,2,2-25.01-4.01-2,52.01-5.77-2.73c-2.56-18.32-4.06-36.85-6.22-55.28,8.46.94,16.78,2.9,25,5Z"/>
  <path class="st0" d="M405,324c.17,4.02,1.38,7.88.93,11.94-19.33-1.12-19.96,16.18-29.93,28.06-3.11.97-2.26-4.45-1.95-5.26.68-1.8,19.33-31.23,20.99-32.22s7.64-1.7,9.97-2.53Z"/>
  <path class="st0" d="M745,297c.16,4.07.99,7.94,1,12h-10c-.16-3.33-2.91-6.91-.53-11.04l9.53-.96Z"/>
  <path class="st0" d="M699,620l-4.01,20c-3.2-2.87-4.16-8.33-5.99-12,5.25.98,6.52-7.2,7.04-7.96.27-.39,2.83.17,2.96-.04Z"/>
  <path class="st0" d="M404,413l13.01-1c.3.23-.25,3.24,0,4-9.75,6.23-9.72.93-13-3Z"/>
  <path class="st1" d="M312,175c.15-.03.83,1.46,3,1v3c-1.52-.18-3.24.25-4.52-.97l.52,1.97h-3c-1.01.03-.93.98-1,1-.79.22-2.08-.15-3,0l-1-2c2.19-.5,2.25-2.39,5-3,1.37-.3,2.65-.71,4-1Z"/>
  <path class="st1" d="M104,325c-1.14,0-3.01-.03-4,0h4Z"/>
  <path class="st0" d="M700,619l1-7c-.36,2.14.08,4.81-1,7Z"/>
  <path class="st1" d="M114,325c-.1-.01-1.03.07-2,0h2Z"/>
  <path class="st1" d="M93,325c-.11,0,.34,2.02-.62,2.08-.75.05-1.26-1.09-1.38-1.08l2-1Z"/>
  <path class="st1" d="M120,326c-1.78,1.66-2.28,1.4-2-1,1.48.26,1.89.97,2,1Z"/>
  <path class="st1" d="M781,394l-3-1c.79.32,2.21-.02,3,1Z"/>
  <path class="st1" d="M771,391h-2c.58.15,1.43-.15,2,0Z"/>
  <path class="st2" d="M144.02,518l-30.01-71.99,9,71.56,7.52-.59.33,8.39-37.85,21.63-.89-9.3c2-2.38,4.58-2.89,6.09-5.99,4.06-8.32-8.06-123.93-10.22-142.18-.72-6.03-2.64-33.81-6.97-36.03l-7.02-.48-1-10c26.98.58,56.09-17.37,69.48,16.02,7.67,19.13,7.38,43.84,1.28,63.23-1.39,4.42-6.67,9.41-6.56,12.99.1,3.36,23.88,59.39,26.26,61.87,1.56,1.63,4.24-.54,5.08.8l-1.12,8.98-23.39,11.09ZM113.01,431c23.64-2.62,13.67-72.83,1.27-76.78l-8.29-.22,7.02,77Z"/>
  <path class="st2" d="M394,309l-.13,7.88c-7.87-.08-31.98,43.69-31.86,46.55,10.66,16.27,19.94,38.33,31.58,53.48,3.84,5,8.29,12.57,15.41,11.09v8.01s-41.95,5.96-41.95,5.96l-1.13-7.34,4.93-1.77c3.04-4.93-18.31-37.33-22.85-42.86l3.79,43.61,8.76,3.31.29,5.93-40.85,9.15-.56-7.01,7.32-3.23,1.98-5.52c-5.23-31.26-1.17-73.51-8.01-103.49-1.76-7.72-2.02-8.05-10.68-7.83l-.66-6.98,40.6-3.96-.14,6.88-6.92,5.58,4.03,43.54c1.22-7.98,29.35-44.06,22.08-49.55l-7.01-.5-1.06-7.93,33-3.01Z"/>
  <path class="st2" d="M200.94,326.07c12.69,39.7,21.59,83.58,36.04,122.45,2.16,5.8,4.1,18.18,12.02,16.48l.03,7.3-38.02,14.69.17-8.82c14.77-4.56,1.61-24.07.32-34.19l-22.5,7.52.25,33.29,8.75.2.03,7.31-27.02,12.69c1.18-11.78,5.63-20.97,7.82-33.67,8.08-46.92,8.61-97.49,17.13-144.67l4.97-.59ZM206.95,430.95l-10.94-36.94-5.01,40.98,15.95-4.04Z"/>
  <path class="st2" d="M303.99,315.01l4,49.99-6.94-.05c-1.08-11.35-10.74-37.54-25.78-33.18-26.57,11.29-15.7,103.98-1.31,115.79l7.56,3.51c16.21.7,23.03-29.09,26.08-29.96l3.23,1.58c3.66,22.33-17.28,46.83-41.08,43.08-48.64-7.67-47.7-180.39,25.64-140.8l2.83-8.73,5.78-1.21Z"/>
  <path class="st0" d="M271,363c.94-6.95-.08-14.52,5.42-20.07l5.38-.71,12.17,34.38,19.58-1.66,3.46,37.05-16.86-1.87c-3.15,4.81-10.08,34.56-19.93,29.66-2.48-3.21-2.93-7.17-4.21-10.78l9.04-23.97,13.95,1.96-1.96-18.58-19,2.55-7.04-27.97Z"/>
  <path class="st2" d="M271,363l7.04,27.97,19-2.55,1.96,18.58-13.95-1.96-9.04,23.97c-7.21-20.41-7.86-44.84-5-66Z"/>
  <polygon class="st0" points="204.84 456.16 208.03 468.3 198.01 472.99 199.87 456.58 204.84 456.16"/>
  <polygon class="st0" points="355.99 331.01 355.52 335.02 352.01 335.99 352.48 331.98 355.99 331.01"/>
  <path class="st2" d="M478,430l-.96-6.95,8.08-1.64c1.34-4.18.97-8.59.85-12.89-.48-17.64-5.96-75.05-10.42-90.57-2.41-8.38-2.46-7.25-11.12-8.88l-.44-7.07c31.77-.1,66.85-17.05,74.72,26.79,2.85,15.89,1.43,29.02-10.57,40.52,12.08,16.88,17.07,43.08,33.87,55.4l-.5,7.24-26.53-2.44-30.98-56.51c.83,7.78,2.36,45.4,8.22,48.26l7.77.73v8.01h-42.01ZM502.02,360.98c26.22,5.85,18.28-57.16-5.03-50.98l5.03,50.98Z"/>
  <path class="st2" d="M574.75,290.25c59.79-10.14,73.12,140.14,31.5,147.5-61.53,10.89-82.65-138.82-31.5-147.5ZM588.64,304.36c-1.8-1.72-5.23-4.31-7.89-4.16l-4.81,2.25c-15.78,12.12-3.14,107.33,13.42,120.19,4.06,3.15,8.63,5.32,13.08,1.31,13.31-12.02-.09-106.48-13.81-119.59Z"/>
  <path class="st2" d="M732.93,278.08l.97,8.83-7.72,1.27c-1.14,2.97-2.04,6.05-2.2,9.27-.92,18.4,11.38,129.14,16.46,146.6,2.14,7.35,9.68,12.25,17.07,11.83,12.3-.69,10.22-43.3,10.48-51.89l5.6.9,5.39,73.1-68.93-21.06-1.06-9.93,8.04.61-16.47-153.7-9.56-3.94-.93-7.35,42.84-4.55Z"/>
  <path class="st2" d="M659.99,283.99l1.01,9-8,1.51c-1.38,1.32-1.91,5.94-2.01,7.95-.5,9.93,13.12,118.96,16.06,126,.58,1.39.63,3.01,1.98,4.02l19.06,2.12c7.02-4.53,6.85-35.48,6.92-43.59l5.32.92,5.67,63.08-68.31-14.18-2.68-8.81,8.48-1.01-15.72-131.26-9.75-3.75-1-7.98,42.99-4.01Z"/>
  <path class="st2" d="M663,315l12.37-1.06c4.05,20.27,4.96,41.44,7.63,62.05l-13-1c-2.5-19.52-5.97-40.46-7-60Z"/>
  <path class="st2" d="M290.99,655l4.88,25.34c-25.55,15.61-24.47,46.15-1.42,63.72l7.46-3.41c-8.94-7.62-10.21-24.73,1.07-30.64l10.02,39c-24.84,6.5-58.59-12.27-57.76-40.18.56-18.95,20.27-44.76,35.75-53.82Z"/>
  <path class="st2" d="M325.99,519c12.09,33.77-3.32,66.89-28.97,89-3.32-31.01,5.59-67.34,28.97-89Z"/>
  <path class="st2" d="M306.01,794.99c8.83-13.44,1.33-25.02-11-31.98l21.43-.87c5.01,10.41,7.38,35.71-10.43,32.85Z"/>
  <path class="st2" d="M326.01,742l-8.01-31.99c11.29,4.26,26.12,26.6,8.01,31.99Z"/>
  <path class="st2" d="M426.77,480.3c46.07-.94,46.1,68.88,1.71,69.78-45.79.92-47.36-68.85-1.71-69.78ZM437,509.99c11.51-36.11-53.11-8.19-22,7.02-13.46,24.34,18.03,25.53,30.01,11.5l2.74-7.27c-.04-6.41-4.39-10.85-10.76-11.25Z"/>
  <path class="st1" d="M436,108l-11.98,6.51,11.98-6.51Z"/>
  <path class="st2" d="M438.99,349c2.28,6.78-3.37,5.9-3.88,7.55-1.15,3.75,5.09,31.03,2.88,33.44l-25.98-22,1.42,15.09,5.56,1.91v6.01s-16,1-16,1l.15-4.86c6.32.28,3.58-13.86,2.82-18.62-1.08-6.73.79-9.77-6.5-11.5l-.48-4.02,16.27-1.01,14.72,15-1-10.98h-4.99s.14-4.89.14-4.89l14.86-2.12Z"/>
  <path class="st1" d="M113.01,431l-7.02-77,8.29.22c12.4,3.95,22.37,74.16-1.27,76.78Z"/>
  <polygon class="st1" points="206.95 430.95 191 434.99 196.01 394.01 206.95 430.95"/>
  <path class="st1" d="M502.02,360.98l-5.03-50.98c23.3-6.18,31.25,56.83,5.03,50.98Z"/>
  <path class="st1" d="M588.64,304.36c13.72,13.1,27.12,107.57,13.81,119.59-4.45,4.01-9.02,1.84-13.08-1.31-16.56-12.86-29.2-108.07-13.42-120.19l4.81-2.25c2.66-.15,6.09,2.44,7.89,4.16ZM595.99,414c3.07-32.65.31-72.57-14.98-101.99-3.95,25.73-1.56,56.93,5.52,81.96,1.68,5.95,4.7,16.09,9.46,20.03Z"/>
  <path class="st0" d="M437,509.99c6.37.4,10.72,4.85,10.76,11.25l-2.74,7.27c-11.98,14.03-43.48,12.84-30.01-11.5-31.11-15.21,33.51-43.13,22-7.02ZM422.73,500.17c-4.12.5-8.82,7.42-3.01,9.62,10.08,3.81,12.59-10.78,3.01-9.62ZM423.26,527.73c3.98,3.78,15.59-.04,13.02-6.43-3.7-9.2-18.96.78-13.02,6.43Z"/>
  <path class="st0" d="M595.99,414c-4.76-3.94-7.78-14.08-9.46-20.03-7.08-25.03-9.47-56.23-5.52-81.96,15.29,29.43,18.05,69.34,14.98,101.99Z"/>
  <path class="st2" d="M423.26,527.73c-5.94-5.65,9.32-15.63,13.02-6.43,2.57,6.39-9.05,10.21-13.02,6.43Z"/>
  <path class="st2" d="M422.73,500.17c9.57-1.16,7.07,13.43-3.01,9.62-5.81-2.2-1.11-9.12,3.01-9.62Z"/>
</svg>