<?xml version="1.0" encoding="UTF-8"?>
<svg id="Layer_1" xmlns="http://www.w3.org/2000/svg" version="1.1" viewBox="0 0 825 825">
  <!-- Generator: Adobe Illustrator 30.2.1, SVG Export Plug-In . SVG Version: 2.1.1 Build 1)  -->
  <defs>
    <style>
      .st0, .st1 {
        fill: none;
      }

      .st2 {
        fill: #222020;
      }

      .st3 {
        fill: #116743;
      }

      .st4 {
        fill: #fefefe;
      }

      .st1 {
        stroke: #fefefe;
        stroke-miterlimit: 10;
      }
    </style>
  </defs>
  <g>
    <path class="st2" d="M384.66,150.75l-25.43,7.09c-14.09,3.93-27.08,7.05-39.6,15.02-1.56.99-2.89,1.83-4.89,1.79,8.49-6.63,16.81-10.36,26.06-16.56,8.2-5.5,10.15-12.06,16.91-19.08,7.95-7.26,16.66-12.89,26.36-17.69,10.14-4.89,20.43-8.67,31.51-11.87L488.11,6.54l17.8,56.82-70.41,43.35-11.78,6.41c.16.88.69,1.96,1.36,2.68l11.69-6.35,79.1-41.47,34.44,19.18-122.98,37.09c-11.25,13.95-25.71,20.73-42.68,26.5Z"/>
    <g>
      <path class="st2" d="M361.98,228.85c10.45-18.47,9.93-40.31,5.22-60.34l2.87-.58c7.14,31.83,2.46,68.92-28.94,85.88-8.97,4.84-18.48,7.72-28.71,8.66-25.25,2.32-47.77-10.02-62.98-29.57-15.27-19.63-23.13-44.17-21.87-69.1.6-11.91,3.7-22.92,9.6-33.03,12.62-21.63,36.18-34.61,61.32-33.13,15.92.94,30.31,7.71,41.83,18.49,4.38,4.1,7.7,8.39,11.68,13.17-.96,1.07-1.91,1.83-3.1,2.47-10.78-13.42-24.03-25.31-40.8-29.98-15.78-4.4-31.98-.26-43.64,11.22-6.95,6.84-11.77,15.14-14.77,24.53-8.76,27.37-1.39,59.08,13.57,82.9,10.87,17.31,27.95,30.95,48.61,33.56s39.86-7.05,50.1-25.15Z"/>
      <path class="st2" d="M343.06,239.27c-4.08,3.03-8.12,5.06-13.23,6.13l-19.39-63.99,48.04,32.09c-1.9,10.38-7.26,19.27-15.41,25.77Z"/>
      <path class="st2" d="M322.49,117.09l-15.19,55.96-27.29-61.3c6.98-6.53,37.01-2.25,42.48,5.34Z"/>
      <path class="st2" d="M281.49,182.69l-23.54,5.68c-3.97-15.2-4.76-30.71-1.15-46.64l47.25,35.16-22.56,5.79Z"/>
      <path class="st2" d="M302.31,243.09c-6.71-1.42-25.75-16.6-28.22-23.02l31.7-37.59-3.47,60.61Z"/>
      <path class="st2" d="M342.48,181.6l-24.43-3.81,18.71-4.99c7.17-1.91,14.07-3.38,21.59-3.35l2.93,14.87-18.8-2.72Z"/>
    </g>
  </g>
  <g>
    <path class="st1" d="M42.24,807.72v-.24M384.66,150.75c16.96-5.77,31.42-12.56,42.68-26.5l122.98-37.09-34.44-19.18-79.1,41.47-11.69,6.35c-.67-.72-1.21-1.8-1.36-2.68l11.78-6.41,70.41-43.35-17.8-56.82-72.53,102.9c-11.08,3.21-21.36,6.99-31.51,11.87-9.7,4.8-18.41,10.43-26.36,17.69-6.76,7.02-8.71,13.58-16.91,19.08-9.25,6.2-17.57,9.93-26.06,16.56,2,.04,3.33-.8,4.89-1.79,12.52-7.96,25.51-11.09,39.6-15.02l25.43-7.09ZM361.98,228.85c-10.23,18.09-29.63,27.73-50.1,25.15s-37.74-16.25-48.61-33.56c-14.96-23.81-22.33-55.53-13.57-82.9,3.01-9.39,7.83-17.69,14.77-24.53,11.66-11.48,27.86-15.62,43.64-11.22,16.76,4.67,30.02,16.56,40.8,29.98,1.19-.64,2.14-1.4,3.1-2.47-3.98-4.78-7.3-9.07-11.68-13.17-11.53-10.78-25.91-17.56-41.83-18.49-25.14-1.48-48.7,11.5-61.32,33.13-5.9,10.11-9,21.12-9.6,33.03-1.26,24.93,6.6,49.47,21.87,69.1,15.2,19.54,37.72,31.89,62.98,29.57,10.24-.94,19.75-3.81,28.71-8.66,31.4-16.96,36.08-54.05,28.94-85.88l-2.87.58c4.71,20.03,5.23,41.87-5.22,60.34ZM322.49,117.09c-5.47-7.59-35.5-11.88-42.48-5.34l27.29,61.3,15.19-55.96ZM281.49,182.69l22.56-5.79-47.25-35.16c-3.62,15.93-2.83,31.44,1.15,46.64l23.54-5.68ZM333.78,287.71c15.92-.2,30.33-1.86,45.34-3.97l35.97-77.65c2.22.16,4.01.42,6.05,1.01l41.85,68.36,40.53-4.21-66.21-104.19c-8.03-9.85-19.94-17.44-32.74-11.83-4.18,1.83-7.81,4.4-10.99,7.65-11.25,11.49-3.58,26.72-6.15,43.76-2.91,19.33-11.98,37.18-25.69,51-3.76,3.79-7.69,6.57-12.55,8.52l-7.39,3.79c-2.89,5.87-5.74,11.34-8.03,17.76ZM342.48,181.6l18.8,2.72-2.93-14.87c-7.52-.03-14.42,1.44-21.59,3.35l-18.71,4.99,24.43,3.81ZM343.06,239.27c8.15-6.5,13.51-15.39,15.41-25.77l-48.04-32.09,19.39,63.99c5.12-1.07,9.15-3.1,13.23-6.13ZM302.31,243.09l3.47-60.61-31.7,37.59c2.47,6.42,21.51,21.61,28.22,23.02ZM445.27,276.33l14.22-.79-40.28-65.83c-.96-.16-1.63-.2-2.44-.07l-33.9,73.19c1.46.05,2.86-.21,4.36-.66l25.75-56.23,32.29,50.38ZM664.51,313.39l12.21-1c2.34,12.07,3.64,23.53,4.89,35.59l3.08,29.57-12.84-.85,5.3,45.2c.05.41.68,1.33.96,1.63.21.23,1.21.21,1.29-.55l4.36-44.59,14.27,2.04c.89-.86,1.74-1.75,2.55-2.75l-9.47-73.32-10.48-2.88-2.13-30.88,60.74-3.97c.41-1.07.44-2.33-.19-3.26l-66.15,6.22-52.8,3.38-53.25,3.87c-12.61.92-23.62,8.69-30.91,18.84,1.89,3.69,3.73,6.71,6.08,9.88,8.08-16.43,22.09-28.06,40.55-27.64,3.48.08,7.49-.19,10.49,1.38l12.53,6.56-1.12-4.91,3.81-4.33,60.45-5.04,5.15,30.83-10.68,3.11c.25,3.02.66,5.44,1.33,7.83ZM456.61,318.49l10.93.14,10.26,94.37-10,2.89,2.69,23.17,37.67-.86h26.89c12.19.02,23.78,1.89,35.75,4l24.18,4.26c12.68,2.24,22.67-3.31,32.55-11.38l.13,10.98,76.3,16.55,84.5,27.24-1.79-35.91-4.96-56.63-22.2-3.52-2.04,52.45-8.61-4.02-2.97-25.33-6.53-57.34c-1.82-16-3.66-31.45-4.61-47.46-.46-7.76-3.46-11.15.05-15.4l8.7-1.15c-.37-9.08-1.27-17.35-3.52-25.93l-58.29,3.82,1.78,25.75,10.35,2.81,9.94,77.08-4.64,4.59-12.69-1.88-4.53,46.27-7.28-2.79-3.6-29.08-5.26-41.73c-1.76-13.97-3.34-27.49-4.53-41.43-.3-3.47-1.94-6.41-.2-10.02l9.38-2.69-4.19-25.48-55.37,4.6c-1.07.09-2.21.92-2.56,1.59-1.24,2.33,1.57,4.93,1.24,7.8-2.51,3.37-13-5.21-17.24-6.48-14.48-4.33-29.62.86-39.34,12.03-3.98,4.58-6.54,9.38-9.38,14.73-.73,1.21-3.01-.21-3.6-1.09l-7.1-10.59c-2.32-3.47-7.33-4.37-10.99-6.87l-67,4.98,1.73,22.96ZM788.88,507.64l-.3-14.6-85.46-27.55-78.4-17-.31-7.3c-8.9,6.89-18.76,9.76-29.54,8.27-8.18-1.13-15.98-2.63-24.15-4.23-12.09-2.36-23.78-3.79-36.17-4.06l-43.13.4-23.62.53-3.28-28.51,10.02-2.78-9.7-89.21-11.09-.2-2.03-28.66,62.83-4.7c-7.2-2.39-14.61-2.38-22.25-2.47-19.21.83-36.24,4.9-55.4,6.06l3.64,41.57,9.3-.82,9.02,77.96-9.02.21,3.71,41.85,58.46-.94c17.7-.28,34.75.88,52.28,2.6,17.67,1.13,29.77,11.53,47.2,1.52l.16,4.11c17.85,4.09,35.52,5.76,53.46,9.78,20.31,4.55,40.17,9.46,59.87,16.23l63.91,21.95ZM253.67,313.69c6.11-4.68,13.48-7.71,21.3-7.1,3.97.31,7.99,1.47,11.81,1.97.48-2.1,1.5-3.91,3.72-4.15l18.07-2c2.09-.23,4.01.71,5.44,2.19l37.72-2.72,47.86-5.06c.65-.07,1.24-.88,1.2-1.4-.19-2.09-39.55,2.87-43.74,3.33l-41.94,4.59c-3.66.4-2.84-3.15-6.01-2.94-23.34,1.57-54.82,3.23-73.89,17.51-9.12,7.16-15.73,17.79-15.4,29.71.22,8.12,3.44,15.71,6.27,23.01,2.85-20.14,11.38-44.49,27.61-56.92ZM744.6,307.47l-1-8.8-7.27.76c-.48,2.84.2,5.43,1.21,8.13l7.06-.08ZM76.62,362.7c.19,6.36,1.49,11.75,2.33,17.82,4.58,33.1,8.14,65.96,10.8,99.38,1.2,15.1,1.99,29.69,2.15,44.63.08,6.76-6.22,1.8-7.87,11.12-.63,3.58-.28,7.1.31,10.67l2.16,13.1,90.33-49.06,81.72-31.42.26-6.97c19.37,6.14,37.07,1.44,49.6-13.88l8.38,4.25c10.83-3.75,21.44-6.78,32.85-8.61l68.91-11.08c-.13-8.31-.59-16.36-2.26-24.29-2.8,1.38-4.95,2.12-7.55,1.94-2.21-.94-3.08-2.71-4.47-4.49-6.2-7.93-11.46-16.08-16.25-25-4.3-8-8.8-15.53-13.67-23.07,1.48-2.26-4.7-4.58-.88-10.89,6.17-10.18,12.43-19.91,19.14-29.74.91-1.33,2.33-2.22,3.73-2.72l7.23-1.51c-.18-7.86-.61-15.55-2.45-23.24l-44.1,4.72c-14.86,1.59-29.17,2.54-44.03,3.3l-3.07-2.35-19.87,2.27c-.8,11.78-14.93-7.69-35.67,9.34-16.96,13.93-25.94,43.44-25.92,65.43-4.98-8.32-8.74-16.96-10.52-26.25l-1.74-9.08-1.52-3.23-4.21-15.39c-1.14-4.17-2.81-7.96-4.94-11.7l-17.76,4.23-19.56,162.05c-3.67-4.9-6.45-9.66-8.58-15.03l-7.34-18.52-4.84-11.01c-2.24-5.09,3.8-10.3,5.58-16.54,8.05-28.32,6.31-74.7-24.05-90.35l-62.24,3.93c-1.17.07-2.92,1.32-2.8,2.4l2.59,23.98,10.06.85ZM185.1,318.43l19.24-4.5c.48-.69.35-2.13-.43-2.44l-32.17,4.09-15.94,134.11c2.95,8.57,6.01,16.59,10.47,24.63l18.82-155.9ZM261.4,481.1l-83.69,32.21-94.18,51.19c.57-11.61-6.55-25.49-.11-35.07,1.28-1.91,2.94-2.91,5.28-3.57.13-2.77.24-5.59.14-8.51-.56-16.14-1.52-31.76-2.95-47.97-2.59-29.46-5.5-58.4-9.79-87.56l-2.41-16.34-9.82-.75-3.1-28.27c.99-1.42,2.39-2.94,4.22-3.88l56.76-3.6c2.37-.15-.65-2.54-7.57-2.54l-20.36.02-1.28-1.41-46.84,6.29,3.93,45.01,11.03.26,12.94,150.78-7.83,5.83,4.78,47.18,43.18-25.71c72.46-43.14,185.95-84.98,268.14-94.9l35.58-4.3c.63-.08,1.4-.24,1.62-.56s.35-1.36.31-1.78l-.73-7.45-66.95,10.7c-12.26,1.96-23.75,5.19-35.18,9.22l-7.43-3.71c-12.35,13.94-29.22,18.42-47.2,14.11l-.51,5.07ZM404.71,334.39l-.9-8.47-7.99,1.9c-6.95,10.14-13.33,20.07-19.71,30.52-.68,1.11-.8,2.49-.35,3.82,9.02-11.71,10.5-27.89,28.95-27.77ZM429.08,392.82c1.85,2.12,4.42,2.83,7.07,2.5l8.89-1.09-2.26-17.9c-.69-5.46-3.69-17.41,3.08-17.85.02-5.23-1.54-9.04-1.64-14.79l-50.28,4.79.81,14.65,5.87,1.74,1.16,16.52-4.92.21,1.69,16.73,26.97-2.66.31-6.58,3.26,3.73ZM756.64,390.34l3.87.17c-4.74-1.17-9.49-2.13-14.68-2.79l5.73,51.92c.11.97,2.35,1.71,3.1,1.58l1.98-50.88ZM761.53,390.96c0-.13-.11-.24-.24-.24s-.24.11-.24.24.11.24.24.24.24-.11.24-.24ZM415.7,413.64l-8.41.63c.35,1.2,1.22,2.58,2.15,2.91,1.5.53,7.07-1.28,6.27-3.53ZM459.59,595.66c41.37-11.47,56.41-59.62,39.25-96.1-8.1-17.22-23.12-29.48-41.66-33.8-13.73-3.2-27.79-2.84-41.29,1.14-17.6,5.18-31.58,17.58-38.94,34.43-16.18,37.07.66,84.41,42.01,94.79,13.39,3.36,27.06,3.3,40.62-.46ZM610.89,517.08l-25.66-44.65c-6.43-1.45-12.26-3.32-19.7-4.11l34.19,54.74c2.53,1.13,10-4.45,11.17-5.97ZM690.41,626.48c.93,3.15,2.04,6.06,3.77,9.61l2.98-14.52,1.63-4.59c6.06-17.07-4.67-42.69-13.17-57.87-6.01-10.74-12.57-20.61-19.54-30.77l-19.52-28.48c-5.04-7.35-9.19-14.74-13.2-22.75-6.81-2.87-14.03-4.18-21.54-4.21l-22.89-.09,24.79,43.17,22.12-7.82,26.55,59.05c9.24,20,17.73,40.14,28.02,59.27ZM277.41,791.65c10.8,11.06,26.49,15.35,41.21,11.24,6.71-1.88,11.52-6.79,13.45-13.36,3.08-10.5.51-22.53-2.61-33.36,16.75-7.06,28.8-19.31,24.86-38.88-1.6-7.57-5.23-14.09-10.1-20.12-9.01-10.69-21.12-18.02-35.15-20.12l-7.44-34.38c10.38-7.39,19-16.06,25.85-26.6,7.46-11.57,11.9-24.2,13.98-37.83,4.22-28.7-2.26-58.81-12.03-85.88-26.17,18.64-38.65,47.01-43.17,77.54-2.49,17.24-2.5,34.16-1.02,51.6-15.95,17.01-47.79,37.84-50.3,62.63-3.3,32.66,15.9,71.39,51.34,75.27.18.92.25,2.23.14,2.98-4.18,1.59-7.92,3.43-11.06,6.36-7.32,6.83-4.37,16.35,2.04,22.91ZM224.58,619.23c-1.77,3.67-2.85,7.04-3.87,10.78,2.42,1.17,4.29.4,6.6-.68l58.97-131.29c-2.43-.15-5.02.55-7.48,1.12,1,1.64.81,2.52.1,4.06l-21.53,47.3c-5.17,11.37-10.33,22.05-15.74,33.27l-17.06,35.43ZM235.34,646.72l16.39-17.17-24.14,3.15c-2.13.28-4.11,1.04-6.3,1.02-1.27-.79-2.53-1.55-3.03-2.37s-.46-2.9-.14-3.79c2.36-6.57,4.86-12.55,7.95-18.85l19.95-40.65,14.3-31.59,15.98-35.02c-13.72-1.22-21.86,2.85-33.47,7.3l-13.37,5.12c-4.06,11.65-8.77,22.94-14.55,34.07l-19.34,37.27c-9.35,18.01-23.17,45.04-26.42,64.73-1.1,6.67,1.23,13.76,4.72,19.31,8.92,14.17,29.45,15.67,43.98,11.42,1.16-11.47,10.03-26.14,17.49-33.96ZM549.73,590.82l74.05-32.77,44.36,98.13c-13,4.2-22.81,17.37-25.31,30.39-.95,4.97-1,10.4,1.42,14.93,2.69,5.03,8.12,8.56,13.67,9.56,15.99,2.88,31.79-16.06,34.99-30.47.35-2.24.56-3.97.5-6.26l-65.21-146.22-107.06,47.62,53.46,122.88c-3.12,1.45-5.6,2.9-8.18,4.74-10.51,8.28-21.12,27.13-14.46,40.11,2.52,4.93,7.45,8.78,13,9.71,19.36,3.24,38.3-20.45,35.66-39.43l-52.6-116.59c.51-2.33.91-3.99,1.7-6.33ZM586.05,642.3l56.95-6.67-9.56-21.48-11.31-23.1-28.82,1.9c-9.26.61-17.82,2.61-26.75,6.13,1.31,4.56,2.77,8.67,4.84,12.95l14.63,30.27ZM337.98,669.31l198.91-22.66-15.5-33.85c-1.79-3.92-3.78-7.31-6.07-11.37l-169.66,18.84-24.35,27.15,1.77,14.35c5.52,1.75,9.87,4.47,14.9,7.54ZM646.21,651.91c1.98-1.91,2.6-3.33,1.38-5.87l-3.6-7.49-56.53,6.61,8.82,21.32,40.94-4.25c3.1-3.37,5.63-7.08,8.99-10.32ZM361.46,692.12l186.51-20.51-9.83-22.09-196.81,22.43c7.63,6.52,14.23,12.78,20.13,20.17ZM218.98,707.12l-.66-9.78-.91-13.37c-19.95,4.83-43.16.59-50.17-21.74-2.27,16.93-.2,38.47,19.27,44.44,10.68,3.27,21.51,2.34,32.47.44Z"/>
    <g>
      <path class="st3" d="M337.98,669.31c-5.03-3.07-9.38-5.78-14.9-7.54l-1.77-14.35,24.35-27.15,169.66-18.84c2.29,4.06,4.27,7.45,6.07,11.37l15.5,33.85-198.91,22.66Z"/>
      <path class="st2" d="M361.46,692.12c-5.9-7.39-12.5-13.65-20.13-20.17l196.81-22.43,9.83,22.09-186.51,20.51Z"/>
    </g>
    <g>
      <g>
        <path class="st2" d="M549.73,590.82c-.8,2.34-1.19,4-1.7,6.33l52.6,116.59c2.64,18.99-16.3,42.67-35.66,39.43-5.55-.93-10.48-4.78-13-9.71-6.65-12.98,3.95-31.83,14.46-40.11,2.59-1.84,5.07-3.29,8.18-4.74l-53.46-122.88,107.06-47.62,65.21,146.22c.05,2.29-.16,4.02-.5,6.26-3.2,14.41-19,33.35-34.99,30.47-5.55-1-10.98-4.53-13.67-9.56-2.42-4.53-2.38-9.95-1.42-14.93,2.5-13.02,12.31-26.18,25.31-30.39l-44.36-98.13-74.05,32.77Z"/>
        <path class="st3" d="M586.05,642.3l-14.63-30.27c-2.07-4.28-3.54-8.39-4.84-12.95,8.93-3.51,17.49-5.51,26.75-6.13l28.82-1.9,11.31,23.1,9.56,21.48-56.95,6.67Z"/>
        <path class="st2" d="M646.21,651.91c-3.36,3.24-5.89,6.95-8.99,10.32l-40.94,4.25-8.82-21.32,56.53-6.61,3.6,7.49c1.22,2.54.6,3.97-1.38,5.87Z"/>
      </g>
      <g>
        <path class="st3" d="M697.16,621.57l-6.75,4.9c-10.3-19.13-18.78-39.28-28.02-59.27l-26.55-59.05-22.12,7.82-24.79-43.17,22.89.09c7.51.03,14.73,1.34,21.54,4.21,4.02,8.01,8.17,15.39,13.2,22.75l19.52,28.48c6.96,10.16,13.53,20.04,19.54,30.77,8.49,15.18,19.22,40.8,13.17,57.87l-1.63,4.59Z"/>
        <path class="st2" d="M610.89,517.08c-1.17,1.52-8.64,7.1-11.17,5.97l-34.19-54.74c7.45.79,13.27,2.67,19.7,4.11l25.66,44.65Z"/>
        <path class="st2" d="M690.41,626.48l6.75-4.9-2.98,14.52c-1.73-3.56-2.84-6.47-3.77-9.61Z"/>
      </g>
    </g>
    <circle class="st2" cx="761.29" cy="390.96" r=".24"/>
    <g>
      <g>
        <path class="st3" d="M235.34,646.72c-7.46,7.82-16.34,22.48-17.49,33.96-14.53,4.25-35.06,2.75-43.98-11.42-3.49-5.54-5.82-12.63-4.72-19.31,3.25-19.7,17.07-46.73,26.42-64.73l19.34-37.27c5.78-11.13,10.49-22.42,14.55-34.07l13.37-5.12c11.61-4.45,19.75-8.52,33.47-7.3l-15.98,35.02-14.3,31.59-19.95,40.65c-3.09,6.29-5.59,12.28-7.95,18.85-.32.89-.36,2.98.14,3.79s1.76,1.58,3.03,2.37c2.19.02,4.18-.74,6.3-1.02l24.14-3.15-16.39,17.17Z"/>
        <path class="st2" d="M218.98,707.12c-10.96,1.9-21.8,2.83-32.47-.44-19.47-5.97-21.53-27.51-19.27-44.44,7.01,22.33,30.22,26.57,50.17,21.74l.91,13.37.66,9.78Z"/>
        <path class="st2" d="M224.58,619.23l17.06-35.43c5.4-11.22,10.56-21.9,15.74-33.27l21.53-47.3c.7-1.54.9-2.42-.1-4.06,2.46-.57,5.04-1.27,7.48-1.12l-58.97,131.29c-2.3,1.08-4.18,1.84-6.6.68,1.02-3.74,2.1-7.11,3.87-10.78Z"/>
      </g>
      <g>
        <path class="st2" d="M277.41,791.65c-6.41-6.56-9.37-16.07-2.04-22.91,3.14-2.93,6.88-4.78,11.06-6.36.11-.75.03-2.06-.14-2.98-35.44-3.88-54.64-42.61-51.34-75.27,2.51-24.79,34.35-45.62,50.3-62.63-1.49-17.45-1.47-34.36,1.02-51.6,4.52-30.53,17-58.9,43.17-77.54,9.77,27.07,16.25,57.18,12.03,85.88-2.08,13.64-6.52,26.26-13.98,37.83-6.85,10.54-15.47,19.2-25.85,26.6l7.44,34.38c14.03,2.1,26.14,9.43,35.15,20.12,4.88,6.02,8.51,12.55,10.1,20.12,3.93,19.57-8.11,31.82-24.86,38.88,3.12,10.83,5.7,22.86,2.61,33.36-1.93,6.57-6.74,11.48-13.45,13.36-14.72,4.11-30.41-.18-41.21-11.24ZM317.08,588.13c14.52-21.48,19.55-46.88,9.73-71.74-25.68,22.33-34.99,61.53-30.77,94.39,8.32-6.59,14.99-14.05,21.04-22.66ZM294.46,718.47c-2.22,7.79-.15,15.36,4.84,21.57l-4.43,2.13c-6.37-5.05-11.29-11.27-14.1-18.93-6.21-16.95,1.58-33.37,16.97-42.25l-5-26.03-2.79-1.12c-14.52,9.29-27.5,26.26-33.46,42.3-9.22,24.78,7.96,45.95,30.87,53.11,8.97,2.8,18.12,3.36,27.66.75l-10.82-42.17c-4.75,1.78-8.31,5.57-9.75,10.65ZM316.12,707.73l9,35.91c3.82-.73,6.98-2.33,9.1-5.23,7.34-10.05-7.21-28.78-18.09-30.68ZM303.94,795.88c4.72,1.24,9.15.97,12.58-1.89,8.08-6.73,5.52-24.64,1.14-33.5l-27.49,1.17c5.63,3.31,10.58,5.93,14.28,10.73,6.53,8.52,4.58,15.44-.51,23.49Z"/>
        <path class="st4" d="M294.46,718.47c1.45-5.08,5.01-8.88,9.75-10.65l10.82,42.17c-9.54,2.61-18.69,2.05-27.66-.75-22.91-7.15-40.09-28.33-30.87-53.11,5.97-16.04,18.94-33.01,33.46-42.3l2.79,1.12,5,26.03c-15.39,8.87-23.19,25.3-16.97,42.25,2.81,7.67,7.73,13.88,14.1,18.93l4.43-2.13c-4.99-6.21-7.06-13.78-4.84-21.57Z"/>
        <path class="st4" d="M317.08,588.13c-6.04,8.61-12.72,16.07-21.04,22.66-4.23-32.86,5.09-72.07,30.77-94.39,9.82,24.86,4.79,50.26-9.73,71.74Z"/>
        <path class="st4" d="M303.94,795.88c5.09-8.05,7.04-14.96.51-23.49-3.7-4.8-8.65-7.43-14.28-10.73l27.49-1.17c4.38,8.87,6.95,26.78-1.14,33.5-3.44,2.86-7.86,3.13-12.58,1.89Z"/>
        <path class="st4" d="M316.12,707.73c10.89,1.9,25.44,20.62,18.09,30.68-2.12,2.9-5.27,4.5-9.1,5.23l-9-35.91Z"/>
      </g>
    </g>
    <g>
      <path class="st2" d="M459.59,595.66c-13.56,3.76-27.24,3.82-40.62.46-41.36-10.39-58.2-57.72-42.01-94.79,7.36-16.85,21.34-29.25,38.94-34.43,13.5-3.98,27.57-4.33,41.29-1.14,18.54,4.32,33.56,16.58,41.66,33.8,17.16,36.48,2.12,84.62-39.25,96.1ZM458.98,533.07c5.51-11.05,5.68-23.98.48-35.18-4.54-9.78-13.17-16.42-23.72-18.4-16.45-3.08-33.1,3.12-40.22,18.95-9.06,20.12-.28,46.35,22.51,51.92,16.17,3.95,33.2-1.75,40.95-17.28Z"/>
      <path class="st4" d="M458.98,533.07c-7.75,15.54-24.78,21.23-40.95,17.28-22.79-5.57-31.57-31.8-22.51-51.92,7.12-15.83,23.77-22.03,40.22-18.95,10.55,1.98,19.18,8.62,23.72,18.4,5.2,11.2,5.03,24.13-.48,35.18ZM443.82,527.71c.88-2.07,1.97-4.56,2.3-6.49.91-5.34-3.81-9.42-8.66-9.73l-1.43-2.67c.6-2.67,1.11-5.09,1-7.69-.16-3.99-3.05-6.96-7.18-7.25-7.42-.52-15,2.7-19.78,8.29-2.57,3-2.59,6.87.17,9.59,1.91,1.88,4.43,3.25,6.89,4.62-1.55,2.98-2.97,5.95-3.59,9.14-.92,4.76,1.72,8.87,6.64,9.93,8.38,1.8,17.57-1.24,23.63-7.72Z"/>
      <g>
        <path class="st2" d="M443.82,527.71c-6.05,6.48-15.24,9.52-23.63,7.72-4.93-1.06-7.57-5.17-6.64-9.93.62-3.19,2.04-6.15,3.59-9.14-2.46-1.37-4.98-2.74-6.89-4.62-2.76-2.72-2.74-6.59-.17-9.59,4.78-5.58,12.36-8.81,19.78-8.29,4.13.29,7.01,3.26,7.18,7.25.11,2.61-.4,5.02-1,7.69l1.43,2.67c4.85.31,9.57,4.39,8.66,9.73-.33,1.93-1.42,4.42-2.3,6.49ZM420.68,511.56c3.5.87,6.68-.15,8.48-2.82,1.51-2.24,1.96-5.8-.23-8.1-3.5-3.69-9.35-2.25-11.98,1.91-1.14,1.81-1.69,3.89-.8,5.88.63,1.42,2.54,2.64,4.53,3.14ZM424.44,530c4.61,1.66,10.15.1,12.89-3.76,1.65-2.33,1.05-5.17-.42-7.29-1.32-1.91-3.75-3.19-6.49-2.91-3.76.38-7.11,2.42-9,5.64-1.77,3.03-.66,7,3.01,8.33Z"/>
        <path class="st4" d="M424.44,530c-3.67-1.32-4.78-5.3-3.01-8.33,1.89-3.23,5.23-5.26,9-5.64,2.73-.27,5.17,1.01,6.49,2.91,1.47,2.12,2.07,4.96.42,7.29-2.74,3.87-8.28,5.42-12.89,3.76Z"/>
        <path class="st4" d="M420.68,511.56c-1.99-.49-3.9-1.72-4.53-3.14-.89-1.99-.34-4.07.8-5.88,2.64-4.16,8.48-5.6,11.98-1.91,2.19,2.3,1.74,5.86.23,8.1-1.8,2.67-4.98,3.69-8.48,2.82Z"/>
      </g>
    </g>
    <g>
      <path class="st3" d="M333.78,287.71c2.29-6.42,5.15-11.89,8.03-17.76l7.39-3.79c4.86-1.96,8.79-4.74,12.55-8.52,13.7-13.81,22.77-31.66,25.69-51,2.57-17.03-5.1-32.26,6.15-43.76,3.18-3.25,6.82-5.82,10.99-7.65,12.8-5.61,24.71,1.98,32.74,11.83l66.21,104.19-40.53,4.21-41.85-68.36c-2.04-.59-3.83-.85-6.05-1.01l-35.97,77.65c-15.01,2.11-29.43,3.77-45.34,3.97Z"/>
      <path class="st2" d="M445.27,276.33l-32.29-50.38-25.75,56.23c-1.51.45-2.9.7-4.36.66l33.9-73.19c.81-.13,1.48-.09,2.44.07l40.28,65.83-14.22.79Z"/>
      <g>
        <path class="st3" d="M76.62,362.7l-10.06-.85-2.59-23.98c-.12-1.08,1.64-2.32,2.8-2.4l62.24-3.93c30.36,15.65,32.1,62.04,24.05,90.35-1.77,6.23-7.81,11.45-5.58,16.54l4.84,11.01,7.34,18.52c2.13,5.37,4.91,10.13,8.58,15.03l19.56-162.05,17.76-4.23c2.12,3.74,3.8,7.53,4.94,11.7l4.21,15.39,1.52,3.23,1.74,9.08c1.78,9.29,5.53,17.92,10.52,26.25-.01-21.99,8.96-51.5,25.92-65.43,20.74-17.03,34.87,2.44,35.67-9.34l19.87-2.27,3.07,2.35c14.86-.76,29.18-1.7,44.03-3.3l44.1-4.72c1.84,7.69,2.27,15.37,2.45,23.24l-7.23,1.51c-1.39.5-2.82,1.39-3.73,2.72-6.71,9.83-12.97,19.56-19.14,29.74-3.82,6.31,2.36,8.63.88,10.89,4.87,7.54,9.38,15.06,13.67,23.07,4.79,8.92,10.05,17.07,16.25,25,1.39,1.78,2.26,3.55,4.47,4.49,2.6.18,4.75-.56,7.55-1.94,1.67,7.93,2.13,15.97,2.26,24.29l-68.91,11.08c-11.41,1.84-22.02,4.86-32.85,8.61l-8.38-4.25c-12.53,15.32-30.23,20.02-49.6,13.88l-.26,6.97-81.72,31.42-90.33,49.06-2.16-13.1c-.59-3.56-.95-7.08-.31-10.67,1.65-9.32,7.94-4.36,7.87-11.12-.17-14.94-.95-29.54-2.15-44.63-2.66-33.42-6.23-66.28-10.8-99.38-.84-6.07-2.14-11.47-2.33-17.82ZM319.09,453.77l43.51-9.75-.36-8.18-8.8-3.34-3.18-37.1c5.91,8.36,11.05,16.75,15.77,25.72,1.81,3.44,3.15,6.8,3.96,10.46l-5.49,2.03,1.57,10.02,44.63-6.35.02-11.13c-3.57,1.04-6.98.35-9.5-2.49-6.42-7.2-11.91-15.1-16.58-23.65l-10-18.26-10.82-18.88c5.93-12.42,12.71-23.94,20.57-34.92,1.88-2.63,7.46-10.15,11.14-9.84l.22-10.77-36.22,3.29,1.36,10.6,8.02.76c-.07,2.08-.28,3.61-.64,5.49-2.08,4.79-4.16,9.31-6.88,13.82l-13.25,21.99-3.41-36.17,6.84-5.59.15-9.22-43.71,4.27.97,9.79c2.82,0,5.61-.07,7.88.43,3.48.77,6.13,29.88,6.29,34.44l1.41,39.96c.41,11.76,1.2,22.89,2.7,34.61.16,1.23-1.02,3.54-1.54,4.75l-7.61,3.47.98,9.71ZM290.34,446.35c-2.14,1.79-5.49,3.75-8.28,2.93-2.49-.73-4.98-1.91-7.18-3.35-3.71-2.44-7.55-14.89-8.68-19.58-5.51-22.93-8.54-57.31-.72-79.7,2.46-7.03,8.79-17.26,17.6-12.89,9.76,4.84,15.76,21.86,16.89,32.6l9.84.05-4.06-50.93-2.48-1.83-6,1.31-2.54,7.75c-5.01-2.32-9.71-4.11-14.97-4.85-17.34-2.45-29.23,9.35-35.74,24.11-10.38,23.52-10.92,54.85-5.91,79.74,3.21,15.98,11.99,41.03,29.86,45.09,8.39,1.9,16.87.29,24.3-4.04,13.99-8.15,23.09-24.96,20.12-41.09-1.56-.82-3.18-1.9-4.81-1.98-3.56-.18-7,18.12-17.22,26.66ZM90.8,537.23l1.44,12.03,40.39-23.07-.42-10.81-7.66.41-7-57.7,25.93,61.78,25.09-11.86,31.24-14.82-.12-9.68-8.68-.24-.23-30.71,19.66-6.56,4.11,12.19c1.12,3.32,2.11,6.75,2.34,10.23.3,4.53-2.44,7.69-6.93,8.55l-.22,12.19,41.04-15.85-.13-10.23c-7.46,3.1-9.38-7.39-11.18-12.46-5.08-14.35-9.86-28.39-13.88-43.14l-11.5-42.24-11.75-40.61-7.42.69c-2.94,16.46-5.06,32.59-6.63,49.29l-4.82,51.26c-1.58,16.77-2.42,33.31-6.73,49.51l-5.35,20.09-1.33,6.67c-.8-1.61,1.25-3.94-.48-5.62-1.83-1.79-4.16,1.42-5.76-2.01-8.71-18.7-16.65-37.5-24.14-56.72-2.22-5.7,3.58-8.67,5.34-13.99,7.23-21.88,7.33-51.69-4.17-72.03-5.11-9.05-13.83-14.19-24.28-14.48-15.42-.43-29.04,4.74-44.91,4.29l1.24,12.78,8.04.7c3.54,7.63,4.5,21.8,5.49,30.99,3.88,35.88,7.5,71.33,10.08,107.36.83,11.57,1.4,22.56,1.25,33.95-.08,6.34-3.74,5.71-6.96,9.88ZM357.78,329.07l-6.58,1.74.16,12.4c4.41-5.46,6.51-6.65,6.42-14.14ZM287.88,439.37c2.86-3,4.92-6.36,6.37-10.09l6.83-17.53,17.79,1.84-3.75-40.26-19.91,1.62-12.13-34.27-7.28.91c-2.65,2.69-4.5,5.9-4.89,9.59l-1.01,9.61c-1.31,12.47-2.25,24.6-1.35,37.16.85,11.79,3.1,22.84,7.01,33.93,1.09,3.09,1.49,6.71,4,8.91,2.31,2.03,6.18.84,8.33-1.41ZM210.08,469.06l-3.85-14.55-7.51.74-2.18,20.15,13.55-6.34Z"/>
        <path class="st2" d="M261.4,481.1l.51-5.07c17.97,4.31,34.84-.17,47.2-14.11l7.43,3.71c11.43-4.03,22.92-7.26,35.18-9.22l66.95-10.7.73,7.45c.04.43-.08,1.47-.31,1.78s-.99.48-1.62.56l-35.58,4.3c-82.2,9.92-195.69,51.76-268.14,94.9l-43.18,25.71-4.78-47.18,7.83-5.83-12.94-150.78-11.03-.26-3.93-45.01,48.11-4.88h0l20.36-.02c6.92,0,9.93,2.39,7.57,2.54l-56.76,3.6c-1.83.94-3.23,2.46-4.22,3.88l3.1,28.27,9.82.75,2.41,16.34c4.3,29.16,7.2,58.1,9.79,87.56,1.43,16.21,2.39,31.83,2.95,47.97.1,2.92,0,5.74-.14,8.51-2.35.66-4,1.66-5.28,3.57-6.44,9.58.68,23.46.11,35.07l94.18-51.19,83.69-32.21Z"/>
        <path class="st2" d="M185.1,318.43l-18.82,155.9c-4.46-8.04-7.52-16.07-10.47-24.63l15.94-134.11,32.17-4.09c.78.31.9,1.75.43,2.44l-19.24,4.5Z"/>
        <path class="st2" d="M253.67,313.69c-16.23,12.43-24.77,36.79-27.61,56.92-2.83-7.3-6.05-14.89-6.27-23.01-.33-11.91,6.28-22.54,15.4-29.71,19.08-14.27,50.55-15.94,73.89-17.51,3.17-.21,2.35,3.34,6.01,2.94l41.94-4.59c4.2-.46,43.55-5.42,43.74-3.33.05.53-.54,1.33-1.2,1.4l-47.86,5.06-37.72,2.72c-1.43-1.48-3.35-2.42-5.44-2.19l-18.07,2c-2.22.25-3.24,2.05-3.72,4.15-3.82-.5-7.84-1.66-11.81-1.97-7.81-.61-15.19,2.41-21.3,7.1Z"/>
        <path class="st2" d="M404.71,334.39c-18.46-.11-19.93,16.06-28.95,27.77-.45-1.34-.33-2.71.35-3.82,6.38-10.44,12.76-20.38,19.71-30.52l7.99-1.9.9,8.47Z"/>
        <path class="st2" d="M415.7,413.64c.8,2.25-4.77,4.06-6.27,3.53-.93-.33-1.8-1.71-2.15-2.91l8.41-.63Z"/>
        <path class="st4" d="M90.8,537.23c3.22-4.17,6.87-3.54,6.96-9.88.15-11.39-.42-22.38-1.25-33.95-2.58-36.03-6.2-71.47-10.08-107.36-.99-9.19-1.95-23.36-5.49-30.99l-8.04-.7-1.24-12.78c15.87.45,29.48-4.73,44.91-4.29,10.45.29,19.17,5.43,24.28,14.48,11.5,20.35,11.4,50.15,4.17,72.03-1.76,5.32-7.56,8.29-5.34,13.99,7.48,19.22,15.43,38.02,24.14,56.72,1.6,3.43,3.93.22,5.76,2.01,1.72,1.68-.32,4.01.48,5.62l1.33-6.67,5.35-20.09c4.32-16.2,5.16-32.74,6.73-49.51l4.82-51.26c1.57-16.7,3.7-32.83,6.63-49.29l7.42-.69,11.75,40.61,11.5,42.24c4.02,14.75,8.8,28.78,13.88,43.14,1.8,5.08,3.72,15.57,11.18,12.46l.13,10.23-41.04,15.85.22-12.19c4.5-.86,7.24-4.02,6.93-8.55-.23-3.49-1.22-6.92-2.34-10.23l-4.11-12.19-19.66,6.56.23,30.71,8.68.24.12,9.68-31.24,14.82-25.09,11.86-25.93-61.78,7,57.7,7.66-.41.42,10.81-40.39,23.07-1.44-12.03ZM120.41,364.94c-1.19-3.38-2.77-6.78-5.61-8.84-1.72-.84-4.74-.46-6.86-.32l6.69,73.38c3.59-1.03,6.01-3.82,7.53-7.14,7.02-15.3,3.79-41.29-1.75-57.08ZM205.3,429.75l-8.39-28.13-3.86,31.32,12.25-3.2Z"/>
        <path class="st4" d="M319.09,453.77l-.98-9.71,7.61-3.47c.52-1.2,1.7-3.52,1.54-4.75-1.51-11.72-2.29-22.85-2.7-34.61l-1.41-39.96c-.16-4.56-2.81-33.67-6.29-34.44-2.27-.5-5.06-.43-7.88-.43l-.97-9.79,43.71-4.27-.15,9.22-6.84,5.59,3.41,36.17,13.25-21.99c2.72-4.51,4.8-9.03,6.88-13.82.36-1.88.57-3.41.64-5.49l-8.02-.76-1.36-10.6,36.22-3.29-.22,10.77c-3.68-.31-9.26,7.21-11.14,9.84-7.86,10.98-14.65,22.5-20.57,34.92l10.82,18.88,10,18.26c4.68,8.54,10.17,16.44,16.58,23.65,2.53,2.84,5.94,3.53,9.5,2.49l-.02,11.13-44.63,6.35-1.57-10.02,5.49-2.03c-.81-3.66-2.15-7.03-3.96-10.46-4.72-8.96-9.86-17.35-15.77-25.72l3.18,37.1,8.8,3.34.36,8.18-43.51,9.75Z"/>
        <path class="st4" d="M290.34,446.35c10.22-8.54,13.67-26.84,17.22-26.66,1.63.08,3.25,1.16,4.81,1.98,2.97,16.13-6.13,32.93-20.12,41.09-7.44,4.33-15.91,5.95-24.3,4.04-17.87-4.06-26.65-29.11-29.86-45.09-5-24.89-4.47-56.21,5.91-79.74,6.52-14.76,18.4-26.56,35.74-24.11,5.27.74,9.96,2.53,14.97,4.85l2.54-7.75,6-1.31,2.48,1.83,4.06,50.93-9.84-.05c-1.12-10.73-7.13-27.76-16.89-32.6-8.81-4.37-15.14,5.86-17.6,12.89-7.82,22.39-4.8,56.77.72,79.7,1.13,4.69,4.97,17.14,8.68,19.58,2.19,1.44,4.68,2.62,7.18,3.35,2.79.82,6.14-1.14,8.28-2.93Z"/>
        <path class="st0" d="M287.88,439.37c-2.14,2.25-6.02,3.44-8.33,1.41-2.51-2.2-2.91-5.82-4-8.91-3.92-11.09-6.17-22.14-7.01-33.93-.9-12.56.05-24.68,1.35-37.16l1.01-9.61c.39-3.68,2.23-6.9,4.89-9.59l7.28-.91,12.13,34.27,19.91-1.62,3.75,40.26-17.79-1.84-6.83,17.53c-1.45,3.73-3.51,7.08-6.37,10.09ZM300.92,408.66l14.62,1.56-3.12-33.63-19.26,1.56-12.11-34.13c-8.3-1.77-7.78,14.75-8.19,19.35l6.55,25.88,19.17-2.52,2.34,21.93ZM299.31,408.5l-13.07-1.81-8.46,22.49,2.63,7.86c.21.62,1.06,1.52,1.64,1.67,7.11,1.79,14.44-25.16,17.27-30.21Z"/>
        <path class="st4" d="M210.08,469.06l-13.55,6.34,2.18-20.15,7.51-.74,3.85,14.55ZM206.52,467.38l-2.45-9.14c-.19-.61-2.54-.47-2.63.15l-1.3,11.88,6.38-2.89Z"/>
        <path class="st4" d="M357.78,329.07c.09,7.49-2.01,8.68-6.42,14.14l-.16-12.4,6.58-1.74Z"/>
        <path class="st3" d="M120.41,364.94c5.54,15.78,8.77,41.78,1.75,57.08-1.52,3.32-3.94,6.11-7.53,7.14l-6.69-73.38c2.12-.14,5.13-.52,6.86.32,2.84,2.06,4.43,5.46,5.61,8.84Z"/>
        <polygon class="st3" points="205.3 429.75 193.05 432.94 196.91 401.62 205.3 429.75"/>
        <path class="st2" d="M300.92,408.66l-2.34-21.93-19.17,2.52-6.55-25.88c.41-4.6-.1-21.11,8.19-19.35l12.11,34.13,19.26-1.56,3.12,33.63-14.62-1.56Z"/>
        <path class="st2" d="M299.31,408.5c-2.82,5.04-10.16,32-17.27,30.21-.58-.15-1.43-1.05-1.64-1.67l-2.63-7.86,8.46-22.49,13.07,1.81Z"/>
        <path class="st2" d="M206.52,467.38l-6.38,2.89,1.3-11.88c.09-.62,2.44-.76,2.63-.15l2.45,9.14Z"/>
      </g>
      <g>
        <path class="st3" d="M429.08,392.82l-3.26-3.73-.31,6.58-26.97,2.66-1.69-16.73,4.92-.21-1.16-16.52-5.87-1.74-.81-14.65,50.28-4.79c.1,5.75,1.67,9.56,1.64,14.79-6.77.44-3.77,12.38-3.08,17.85l2.26,17.9-8.89,1.09c-2.65.33-5.22-.39-7.07-2.5ZM420.66,392.39l-.03-8.47-5.68-2.09-.61-10.01,23.79,20.06c1.38-.7,2.17-2.46,2.09-4.04-.65-11.51-2.89-19.39-3.62-30.54,1.84-.98,3.81-1.83,4.32-3.72.55-2.04.06-4.37-.62-6.29l-17.4,2.52-.38,7.1-6.52-6.46-18.45,1.17.86,6.71c1.88.44,5.04.93,5.32,2.92l1.75,12.67c.39,2.8,1.92,13.12-3.54,11.7l-.29,7.97,19.02-1.2Z"/>
        <path class="st4" d="M420.66,392.39l-19.02,1.2.29-7.97c5.46,1.42,3.93-8.9,3.54-11.7l-1.75-12.67c-.27-1.98-3.44-2.48-5.32-2.92l-.86-6.71,18.45-1.17,6.52,6.46.38-7.1,17.4-2.52c.68,1.93,1.18,4.25.62,6.29-.51,1.89-2.48,2.74-4.32,3.72.73,11.15,2.97,19.03,3.62,30.54.09,1.58-.71,3.34-2.09,4.04l-23.79-20.06.61,10.01,5.68,2.09.03,8.47ZM427.83,357.45l-4.66.23,4.86,4.88-.2-5.12Z"/>
        <polygon class="st3" points="427.83 357.45 428.03 362.57 423.17 357.68 427.83 357.45"/>
      </g>
      <g>
        <path class="st3" d="M456.61,318.49l-1.73-22.96,67-4.98c3.66,2.5,8.67,3.4,10.99,6.87l7.1,10.59c.59.88,2.87,2.3,3.6,1.09,2.84-5.35,5.4-10.15,9.38-14.73,9.72-11.17,24.86-16.37,39.34-12.03,4.24,1.27,14.73,9.85,17.24,6.48.33-2.87-2.48-5.46-1.24-7.8.35-.66,1.5-1.5,2.56-1.59l55.37-4.6,4.19,25.48-9.38,2.69c-1.74,3.6-.09,6.55.2,10.02,1.19,13.94,2.77,27.45,4.53,41.43l5.26,41.73,3.6,29.08,7.28,2.79,4.53-46.27,12.69,1.88,4.64-4.59-9.94-77.08-10.35-2.81-1.78-25.75,58.29-3.82c2.25,8.58,3.15,16.85,3.52,25.93l-8.7,1.15c-3.51,4.25-.51,7.64-.05,15.4.95,16.01,2.79,31.46,4.61,47.46l6.53,57.34,2.97,25.33,8.61,4.02,2.04-52.45,22.2,3.52,4.96,56.63,1.79,35.91-84.5-27.24-76.3-16.55-.13-10.98c-9.88,8.08-19.87,13.62-32.55,11.38l-24.18-4.26c-11.97-2.11-23.56-3.98-35.75-3.98h-26.89s-37.67.85-37.67.85l-2.69-23.17,10-2.89-10.26-94.37-10.93-.14ZM758.7,454.03c-8.44,1.54-16.05-4.67-17.41-12.83l-3.91-23.56c-5.11-30.74-8.44-61.43-10.38-92.58l-1.5-24.08c-.25-3.97.52-7.93,1.95-11.43l8.19-1.43-1.3-11.69-45.8,4.87,1.21,9.72,9.54,4.07,16.15,150.81-8.05-.48,1.49,12.67,71.82,21.91-5.6-76.34-8.45-1.43c-.43,10.1,1.54,46.81-7.95,51.8ZM693.61,389.31c-.37,12.58.44,33.65-5.59,43.69l-18.49-2.04c-1.42-4.4-2.36-8.3-3.06-12.96-5.5-36.32-10.05-72.51-13.64-109.05-.46-4.64-.4-8.71.95-13.01l8.94-1.75-1.29-11.82-45.97,4.3,1.3,10.4,9.73,3.79,15.41,128.74-8.76,1.18,3.56,11.32,71.01,14.71-5.9-66.14-8.19-1.35ZM609.02,438.55c4.81-1.35,8.37-4.58,11.19-8.29,7.67-10.09,10.65-26.01,11.43-38.65,1.64-26.53-3.47-59.25-17.86-81.96-8.89-14.03-22.52-24.18-39.95-20.72-21.29,4.24-27.92,30.78-28.96,49.42-1.07,19.34,1.74,38.47,8.25,56.71,5.06,14.19,13.53,29.3,26.03,37.97,8.69,6.03,19.32,8.47,29.86,5.51ZM521.62,420.6l-9.03-.87c-1.58-3.15-2.59-6.49-3.18-10.1-1.57-9.65-2.65-18.99-2.93-29.14l27.7,50.39,28.82,2.67.64-9.71c-5.81-3.98-9.41-9.08-13.05-14.69-7.72-13.33-11.94-26.81-20.26-39.75,6.71-6.79,10.7-15.26,11.13-24.73.46-10.17-1.16-20.24-5.09-29.51-3.93-9.28-11.62-15.47-21.5-17.14-5.74-.97-11.4-1.14-17.28-.5l-18.21,1.97c-5.7.62-11.02.95-16.82,1.12l.62,9.72,7.05,1.3c1.13.21,2.49,1.56,2.86,2.79,1.67,5.55,2.88,10.68,3.75,16.52,3.88,26.08,6.48,52.06,7.87,78.41.2,3.85,0,7.28-.58,10.73l-8.6,1.79,1.05,7.72,2.33,1.91,42.69-.02v-10.87Z"/>
        <path class="st2" d="M788.88,507.64l-63.91-21.95c-19.7-6.77-39.56-11.68-59.87-16.23-17.94-4.02-35.61-5.69-53.46-9.78l-.16-4.11c-17.44,10-29.53-.39-47.2-1.52-17.53-1.72-34.58-2.88-52.28-2.6l-58.46.94-3.71-41.85,9.02-.21-9.02-77.96-9.3.82-3.64-41.57c19.16-1.16,36.19-5.22,55.4-6.06,7.64.09,15.05.08,22.25,2.47l-62.83,4.7,2.03,28.66,11.09.2,9.7,89.21-10.02,2.78,3.28,28.51,23.62-.53,43.13-.4c12.39.27,24.08,1.69,36.17,4.06,8.17,1.6,15.96,3.1,24.15,4.23,10.78,1.49,20.65-1.38,29.54-8.27l.31,7.3,78.4,17,85.46,27.55.3,14.6Z"/>
        <path class="st2" d="M664.51,313.39c-.67-2.38-1.07-4.81-1.33-7.83l10.68-3.11-5.15-30.83-60.45,5.04-3.81,4.33,1.12,4.91-12.53-6.56c-3-1.57-7.01-1.3-10.49-1.38-18.46-.42-32.47,11.21-40.55,27.64-2.35-3.17-4.19-6.2-6.08-9.88,7.29-10.15,18.3-17.93,30.91-18.84l53.25-3.87,52.8-3.38,66.15-6.22c.64.92.61,2.19.19,3.26l-60.74,3.97,2.13,30.88,10.48,2.88,9.47,73.32c-.81.99-1.66,1.89-2.55,2.75l-14.27-2.04-4.36,44.59c-.07.76-1.07.78-1.29.55-.27-.3-.91-1.22-.96-1.63l-5.3-45.2,12.84.85-3.08-29.57c-1.26-12.06-2.55-23.52-4.89-35.59l-12.21,1Z"/>
        <path class="st2" d="M756.64,390.34l-1.98,50.88c-.75.14-2.99-.6-3.1-1.58l-5.73-51.92c5.18.66,9.94,1.62,14.68,2.79l-3.87-.17Z"/>
        <path class="st2" d="M744.6,307.47l-7.06.08c-1.01-2.7-1.7-5.29-1.21-8.13l7.27-.76,1,8.8Z"/>
        <path class="st4" d="M521.62,420.6v10.87s-42.7.02-42.7.02l-2.33-1.91-1.05-7.72,8.6-1.79c.58-3.45.78-6.89.58-10.73-1.39-26.35-3.99-52.33-7.87-78.41-.87-5.84-2.08-10.96-3.75-16.52-.37-1.23-1.73-2.58-2.86-2.79l-7.05-1.3-.62-9.72c5.8-.18,11.12-.51,16.82-1.12l18.21-1.97c5.87-.64,11.54-.47,17.28.5,9.88,1.67,17.57,7.86,21.5,17.14,3.93,9.27,5.55,19.35,5.09,29.51-.43,9.48-4.42,17.94-11.13,24.73,8.32,12.94,12.54,26.43,20.26,39.75,3.64,5.6,7.23,10.71,13.05,14.69l-.64,9.71-28.82-2.67-27.7-50.39c.28,10.15,1.36,19.49,2.93,29.14.59,3.6,1.6,6.95,3.18,10.1l9.03.87ZM510.5,317.49c-2.67-4.1-6.59-6.81-11.72-6.38l4.75,48.46c3.6.91,7.4-.48,9.61-3.67,6.87-9.94,4.01-28.2-2.64-38.41Z"/>
        <path class="st4" d="M609.02,438.55c-10.54,2.95-21.17.52-29.86-5.51-12.5-8.67-20.97-23.78-26.03-37.97-6.51-18.24-9.33-37.37-8.25-56.71,1.04-18.64,7.67-45.19,28.96-49.42,17.43-3.47,31.06,6.69,39.95,20.72,14.39,22.71,19.5,55.43,17.86,81.96-.78,12.64-3.76,28.56-11.43,38.65-2.83,3.72-6.38,6.95-11.19,8.29ZM606.54,393.55c-.61-21.84-3.59-43.24-8.9-64.4-1.63-6.49-3.58-12.34-6.33-18.29-1.85-4-4.82-7.72-9.37-8.91-1.57-.2-4.74,1.34-5.79,2.58-5.31,6.3-5.87,22.36-5.77,30.59.26,21.22,3.11,42.03,8.65,62.46,1.75,6.46,3.93,12.31,6.93,18.1,1.98,3.81,4.85,6.68,8.78,8.36,12.48,5.32,11.99-24.06,11.81-30.49Z"/>
        <path class="st4" d="M758.7,454.03c9.49-4.99,7.52-41.7,7.95-51.8l8.45,1.43,5.6,76.34-71.82-21.91-1.49-12.67,8.05.48-16.15-150.81-9.54-4.07-1.21-9.72,45.8-4.87,1.3,11.69-8.19,1.43c-1.43,3.49-2.2,7.45-1.95,11.43l1.5,24.08c1.94,31.16,5.28,61.84,10.38,92.58l3.91,23.56c1.36,8.16,8.96,14.37,17.41,12.83Z"/>
        <path class="st4" d="M693.61,389.31l8.19,1.35,5.9,66.14-71.01-14.71-3.56-11.32,8.76-1.18-15.41-128.74-9.73-3.79-1.3-10.4,45.97-4.3,1.29,11.82-8.94,1.75c-1.35,4.31-1.4,8.37-.95,13.01,3.59,36.54,8.15,72.72,13.64,109.05.7,4.66,1.64,8.56,3.06,12.96l18.49,2.04c6.04-10.04,5.22-31.11,5.59-43.69Z"/>
        <path class="st3" d="M510.5,317.49c6.65,10.2,9.51,28.46,2.64,38.41-2.21,3.19-6.01,4.58-9.61,3.67l-4.75-48.46c5.13-.42,9.05,2.28,11.72,6.38Z"/>
        <path class="st3" d="M606.54,393.55c.18,6.43.67,35.8-11.81,30.49-3.94-1.68-6.81-4.55-8.78-8.36-3-5.78-5.18-11.64-6.93-18.1-5.53-20.44-8.39-41.24-8.65-62.46-.1-8.23.46-24.29,5.77-30.59,1.05-1.24,4.22-2.78,5.79-2.58,4.56,1.2,7.52,4.91,9.37,8.91,2.75,5.95,4.7,11.8,6.33,18.29,5.32,21.16,8.3,42.55,8.9,64.4ZM597.34,416.62c1.85-17.51,1.82-33.94.16-50.81-2.22-20.06-6.82-40.27-17.07-58.19-5.22,28.02-2.57,60.51,5.03,87.78,2.1,6.74,5.27,17.93,11.88,21.22Z"/>
        <path class="st4" d="M597.34,416.62c-6.61-3.3-9.78-14.49-11.88-21.22-7.6-27.27-10.25-59.75-5.03-87.78,10.26,17.91,14.85,38.13,17.07,58.19,1.66,16.87,1.69,33.3-.16,50.81ZM594.85,410.08c1.62-18.23.98-35.7-1.55-53.46-2.27-13.53-5.27-26.58-11.35-39.22-2.96,26.81-.4,53.22,6.81,78.48,1.45,5.08,3.02,9.64,6.09,14.2Z"/>
        <path class="st2" d="M594.85,410.08c-3.07-4.56-4.64-9.12-6.09-14.2-7.21-25.26-9.77-51.67-6.81-78.48,6.08,12.65,9.08,25.69,11.35,39.22,2.53,17.76,3.16,35.23,1.55,53.46Z"/>
      </g>
    </g>
  </g>
</svg>